<svg width="32" height="32" viewBox="0 0 32 32" fill="none" xmlns="http://www.w3.org/2000/svg">
<g id="Mood=Bad, Style=1, Component=Mood Indicator">
<path id="Vector" d="M32 15.9998C32 24.8365 24.8366 32 16 32C7.16341 32 0 24.8365 0 15.9998C0 7.16319 7.16341 0 16 0C24.8366 0 32 7.16319 32 15.9998Z" fill="#F54336"/>
<path id="Vector_2" d="M20.3887 24.373C20.1493 24.373 19.9153 24.2538 19.7784 24.0367C19.7237 23.9511 18.4687 22.0325 15.9999 22.0325C13.5815 22.0325 12.2683 23.9662 12.2136 24.0486C11.9939 24.379 11.5475 24.4711 11.2161 24.2527C10.8847 24.0345 10.7913 23.5906 11.0082 23.2582C11.0793 23.1492 12.7862 20.591 15.9999 20.591C19.2869 20.591 20.9307 23.1608 20.9991 23.2702C21.21 23.6077 21.1075 24.0524 20.77 24.2633C20.6512 24.3375 20.5191 24.373 20.3887 24.373Z" fill="#212121"/>
<path id="Vector_3" d="M24.9258 10.6469C23.626 10.7189 18.7761 11.2162 18.7761 14.6276C18.7761 16.0363 19.918 17.1782 21.3266 17.1782C22.7353 17.1782 23.8772 16.0363 23.8772 14.6276C23.8772 13.7535 23.4372 12.9823 22.7667 12.5228C23.5776 11.6918 24.5777 11.3545 25.0175 11.2397C25.1505 11.205 25.243 11.0855 25.243 10.9481C25.243 10.7751 25.0985 10.6373 24.9258 10.6469Z" fill="#212121"/>
<path id="Vector_4" d="M7.07392 10.6469C6.90116 10.6373 6.75677 10.7751 6.75677 10.9481C6.75677 11.0855 6.84915 11.205 6.98222 11.2397C7.42204 11.3545 8.42218 11.6918 9.23294 12.5228C8.5626 12.9823 8.12261 13.7535 8.12261 14.6276C8.12261 16.0363 9.26451 17.1782 10.6731 17.1782C12.0817 17.1782 13.2236 16.0363 13.2236 14.6276C13.2236 11.2162 8.37363 10.7189 7.07392 10.6469Z" fill="#212121"/>
</g>
</svg>
