<svg width="52" height="52" viewBox="0 0 52 52" fill="none" xmlns="http://www.w3.org/2000/svg">
<path d="M37.3708 15.9695H14.6305C12.7895 15.9695 11.2971 17.4619 11.2971 19.3029V27.7995C11.2971 29.6405 12.7895 31.1329 14.6305 31.1329H37.3708C39.2118 31.1329 40.7042 29.6405 40.7042 27.7995V19.3029C40.7042 17.4619 39.2118 15.9695 37.3708 15.9695Z" stroke="#F9FAFB" stroke-width="1.5" stroke-linecap="round" stroke-linejoin="round"/>
<path d="M38.0445 10.075C38.3762 10.0748 38.7046 10.14 39.011 10.2669C39.3175 10.3937 39.5959 10.5797 39.8304 10.8143C40.065 11.0488 40.251 11.3272 40.3778 11.6337C40.5047 11.9401 40.5699 12.2685 40.5698 12.6002V13.066C40.5698 14.1349 40.9943 15.1599 41.7501 15.9157C42.5059 16.6714 43.5309 17.096 44.5998 17.096C44.9314 17.0959 45.2599 17.1611 45.5663 17.288C45.8727 17.4148 46.1512 17.6008 46.3857 17.8353C46.6202 18.0699 46.8062 18.3483 46.9331 18.6547C47.0599 18.9612 47.1251 19.2896 47.125 19.6213V27.3758C47.1251 27.7074 47.06 28.0357 46.9332 28.3421C46.8064 28.6484 46.6205 28.9268 46.3861 29.1613C46.1517 29.3958 45.8734 29.5819 45.567 29.7088C45.2607 29.8357 44.9324 29.901 44.6008 29.901C43.532 29.901 42.507 30.3256 41.7512 31.0814C40.9954 31.8372 40.5708 32.8622 40.5708 33.931V34.3969C40.571 34.7286 40.5057 35.0571 40.3788 35.3637C40.2519 35.6702 40.0658 35.9487 39.8311 36.1832C39.5965 36.4177 39.3179 36.6037 39.0114 36.7305C38.7048 36.8573 38.3763 36.9224 38.0445 36.9221H17.7645L14.0888 41.3768C13.1928 42.4623 11.4303 41.8285 11.4303 40.4213V33.9321C11.4303 33.4029 11.326 32.8788 11.1235 32.3899C10.921 31.901 10.6241 31.4567 10.2499 31.0825C9.87567 30.7083 9.43141 30.4114 8.94247 30.2089C8.45352 30.0064 7.92948 29.9021 7.40025 29.9021C7.0685 29.9023 6.73997 29.837 6.43346 29.7101C6.12695 29.5832 5.84846 29.3971 5.61393 29.1624C5.37939 28.9278 5.19341 28.6492 5.06662 28.3427C4.93983 28.0361 4.87472 27.7075 4.875 27.3758V19.6213C4.87486 19.2897 4.94004 18.9614 5.06683 18.655C5.19362 18.3486 5.37952 18.0702 5.61393 17.8357C5.84833 17.6012 6.12664 17.4152 6.43296 17.2883C6.73928 17.1614 7.0676 17.096 7.39917 17.096C8.46799 17.096 9.49304 16.6714 10.2488 15.9157C11.0046 15.1599 11.4292 14.1349 11.4292 13.066V12.6002C11.4292 12.2685 11.4945 11.9401 11.6215 11.6337C11.7485 11.3274 11.9346 11.049 12.1692 10.8146C12.4039 10.5802 12.6824 10.3943 12.9889 10.2676C13.2954 10.1408 13.6238 10.0757 13.9555 10.076L38.0445 10.075Z" stroke="#F9FAFB" stroke-width="1.5" stroke-linecap="round" stroke-linejoin="round"/>
<path d="M17.0051 21.7425C17.0051 21.0308 17.2878 20.3483 17.7911 19.845C18.2943 19.3418 18.9769 19.0591 19.6885 19.0591C20.4002 19.0591 21.0828 19.3418 21.586 19.845C22.0892 20.3483 22.372 21.0308 22.372 21.7425V24.804C22.372 25.5157 22.0892 26.1982 21.586 26.7015C21.0828 27.2047 20.4002 27.4874 19.6885 27.4874C18.9769 27.4874 18.2943 27.2047 17.7911 26.7015C17.2878 26.1982 17.0051 25.5157 17.0051 24.804V21.7425ZM29.6281 21.7425C29.6281 21.0308 29.9108 20.3483 30.4141 19.845C30.9173 19.3418 31.5999 19.0591 32.3115 19.0591C33.0232 19.0591 33.7058 19.3418 34.209 19.845C34.7122 20.3483 34.995 21.0308 34.995 21.7425V24.804C34.995 25.5157 34.7122 26.1982 34.209 26.7015C33.7058 27.2047 33.0232 27.4874 32.3115 27.4874C31.5999 27.4874 30.9173 27.2047 30.4141 26.7015C29.9108 26.1982 29.6281 25.5157 29.6281 24.804V21.7425Z" stroke="#F9FAFB" stroke-width="1.5" stroke-linecap="round" stroke-linejoin="round"/>
</svg>
