<svg version="1.1" id="Layer_1" xmlns="http://www.w3.org/2000/svg" xmlns:xlink="http://www.w3.org/1999/xlink" x="0px" y="0px"
	 width="100%" viewBox="0 0 256 256" enable-background="new 0 0 256 256" xml:space="preserve">
<path fill="#00A5E3" opacity="1.000000" stroke="none" 
	d="
M257.000000,102.539368 
	C252.461685,122.842445 247.859314,142.670517 243.405548,162.531937 
	C239.893723,178.192764 236.591537,193.900482 233.140671,209.575150 
	C231.901489,215.203812 227.266953,218.810196 220.773239,219.321213 
	C219.118332,219.451447 217.446243,219.373642 215.782043,219.373718 
	C147.045486,219.376587 78.308937,219.382416 9.572392,219.359604 
	C6.950287,219.358734 4.218576,219.884384 1.394686,218.159286 
	C1.000000,215.629440 1.000000,213.258896 1.000000,210.444168 
	C4.493066,209.878784 7.998758,209.517471 11.475833,209.700317 
	C15.359344,209.904541 16.805071,208.515686 16.718294,204.545670 
	C16.507139,194.885269 16.654306,185.217087 16.654631,175.552032 
	C16.655991,134.892136 16.648598,94.232246 16.662779,53.572361 
	C16.666258,43.600262 21.392578,38.689529 31.196999,38.669373 
	C57.025913,38.616272 82.855057,38.621567 108.683998,38.669197 
	C117.240585,38.684975 121.333138,41.972485 123.492424,50.286209 
	C124.629402,54.663841 127.708321,55.691700 131.820816,55.681702 
	C160.982452,55.610817 190.144333,55.645962 219.306137,55.650497 
	C229.425354,55.652069 233.242706,59.609734 233.390320,69.866486 
	C233.451981,74.150856 231.631134,79.380348 234.283524,82.472878 
	C236.902130,85.526062 242.162308,83.217964 246.235413,83.658806 
	C250.879456,84.161430 254.217300,86.545212 256.753113,90.765823 
	C257.000000,94.692909 257.000000,98.385818 257.000000,102.539368 
M94.500114,93.378380 
	C81.838013,93.378967 69.175217,93.453316 56.514248,93.333855 
	C52.854942,93.299339 51.107391,94.820206 50.335285,98.336418 
	C42.762253,132.824326 35.116077,167.296219 27.455181,201.764771 
	C25.994015,208.338974 26.953030,209.608734 34.004768,209.628754 
	C46.166962,209.663284 58.329323,209.635483 70.491615,209.635300 
	C118.974197,209.634567 167.456818,209.612534 215.939316,209.671722 
	C220.237793,209.676971 222.791290,208.913376 223.896011,203.783249 
	C231.222473,169.760422 238.958176,135.825577 246.595169,101.869858 
	C248.305313,94.266243 247.674042,93.375801 239.948227,93.375305 
	C191.798859,93.372200 143.649490,93.376808 94.500114,93.378380 
M174.499878,83.645226 
	C187.322220,83.646172 200.144958,83.711578 212.966766,83.629333 
	C225.004776,83.552124 223.548874,85.235954 223.634628,73.048042 
	C223.685287,65.846977 223.167114,65.379425 215.989914,65.377556 
	C187.513931,65.370148 159.037918,65.388763 130.561981,65.352158 
	C120.735039,65.339516 117.073120,62.749332 114.213631,53.491711 
	C113.088005,49.847462 110.811996,48.398796 107.260994,48.398342 
	C82.448662,48.395168 57.636303,48.377491 32.824032,48.417152 
	C28.406361,48.424213 26.275070,50.508804 26.293497,55.235153 
	C26.409719,85.042900 26.335363,114.851357 26.404366,144.659393 
	C26.409943,147.068253 26.021608,149.689301 27.930452,152.629242 
	C32.252346,133.609497 36.463116,115.413261 40.502094,97.178970 
	C42.934597,86.197243 45.884171,83.651787 57.098019,83.649994 
	C95.898636,83.643799 134.699249,83.645836 174.499878,83.645226 
z"/>
<path fill="#00A5E3" opacity="1.000000" stroke="none" 
	d="
M161.191498,159.480438 
	C165.276611,160.463516 168.097015,162.721329 170.844711,165.213577 
	C173.356384,167.491714 173.838181,170.127945 171.960632,172.679413 
	C169.931519,175.436829 166.689560,175.146881 164.390717,173.357941 
	C153.247650,164.686493 142.060333,165.426590 130.731003,172.703873 
	C127.715721,174.640701 124.639229,175.579834 122.457077,172.203064 
	C120.195358,168.703140 122.284615,165.958954 125.298958,163.826736 
	C136.346588,156.012115 148.302277,155.541214 161.191498,159.480438 
z"/>
<path fill="#00A5E3" opacity="1.000000" stroke="none" 
	d="
M112.961128,140.208893 
	C109.762383,136.882904 108.857101,133.492035 110.635246,129.463455 
	C112.088272,126.171478 114.520653,124.843643 118.034737,124.606667 
	C121.913849,124.345070 125.338753,125.314117 126.737083,128.926254 
	C128.046112,132.307739 128.356415,136.366348 125.494690,139.272476 
	C122.838745,141.969620 119.421272,143.383163 115.510162,141.482574 
	C114.772293,141.124008 114.015465,140.804459 112.961128,140.208893 
z"/>
<path fill="#00A5E3" opacity="1.000000" stroke="none" 
	d="
M181.633728,142.121979 
	C172.594101,141.551086 168.680161,135.959839 171.802658,129.120514 
	C173.927597,124.466217 177.791855,124.372284 181.841324,124.748581 
	C185.366455,125.076149 187.714401,127.391045 188.161987,130.731735 
	C188.684891,134.634659 189.023209,138.876801 184.295547,140.982712 
	C183.538544,141.319901 182.787399,141.670258 181.633728,142.121979 
z"/>
</svg>