<svg width="56" height="57" viewBox="0 0 56 57" fill="none" xmlns="http://www.w3.org/2000/svg">
<path d="M15.5527 18.5983C15.3063 21.2275 15.1333 25.8805 16.6857 27.861C16.6857 27.861 15.9549 22.7497 22.5062 16.3367C25.144 13.7551 25.7538 10.2438 24.8327 7.61027C24.3095 6.11838 23.3538 4.88596 22.5235 4.02542C22.0392 3.51948 22.4111 2.68489 23.1159 2.71516C27.3797 2.90543 34.2899 4.09028 37.2261 11.4589C38.5148 14.6935 38.6099 18.0362 37.9959 21.4351C37.6067 23.6059 36.2229 28.4318 39.3797 29.0242C41.6326 29.448 42.7223 27.6577 43.211 26.3691C43.4142 25.8329 44.1191 25.6988 44.4996 26.1269C48.305 30.4556 48.6293 35.5539 47.8423 39.9431C46.3202 48.4274 37.7278 54.6025 29.1916 54.6025C18.5279 54.6025 10.0393 48.5009 7.83818 37.4566C6.9517 32.9983 7.40143 24.1767 14.2771 17.9497C14.7873 17.4827 15.6219 17.8978 15.5527 18.5983Z" fill="url(#paint0_radial_275_1016)"/>
<path d="M33.0878 34.4643C29.157 29.4049 30.917 23.6319 31.8814 21.3314C32.0111 21.0287 31.6651 20.7433 31.3927 20.9292C29.7019 22.0795 26.2381 24.7865 24.6252 28.5962C22.4414 33.7465 22.5971 36.2675 23.89 39.3464C24.6684 41.2016 23.7646 41.5951 23.3106 41.6643C22.8695 41.7335 22.463 41.4394 22.1387 41.1324C21.2059 40.2365 20.541 39.0985 20.2187 37.8459C20.1495 37.5778 19.7993 37.5043 19.6393 37.7248C18.4284 39.3983 17.8014 42.0837 17.7712 43.9821C17.676 49.8502 22.5236 54.6069 28.3873 54.6069C35.7776 54.6069 41.1613 46.434 36.9148 39.6016C35.6824 37.6124 34.5235 36.3108 33.0878 34.4643Z" fill="url(#paint1_radial_275_1016)"/>
<defs>
<radialGradient id="paint0_radial_275_1016" cx="0" cy="0" r="1" gradientUnits="userSpaceOnUse" gradientTransform="translate(27.0795 54.7369) rotate(-179.751) scale(30.5243 50.0842)">
<stop offset="0.314" stop-color="#FF9800"/>
<stop offset="0.662" stop-color="#FF6D00"/>
<stop offset="0.972" stop-color="#F44336"/>
</radialGradient>
<radialGradient id="paint1_radial_275_1016" cx="0" cy="0" r="1" gradientUnits="userSpaceOnUse" gradientTransform="translate(28.7938 24.362) rotate(90.5787) scale(31.9377 24.0356)">
<stop offset="0.214" stop-color="#FFF176"/>
<stop offset="0.328" stop-color="#FFF27D"/>
<stop offset="0.487" stop-color="#FFF48F"/>
<stop offset="0.672" stop-color="#FFF7AD"/>
<stop offset="0.793" stop-color="#FFF9C4"/>
<stop offset="0.822" stop-color="#FFF8BD" stop-opacity="0.804"/>
<stop offset="0.863" stop-color="#FFF6AB" stop-opacity="0.529"/>
<stop offset="0.91" stop-color="#FFF38D" stop-opacity="0.209"/>
<stop offset="0.941" stop-color="#FFF176" stop-opacity="0"/>
</radialGradient>
</defs>
</svg>
