<svg width="32" height="32" viewBox="0 0 32 32" fill="none" xmlns="http://www.w3.org/2000/svg">
<g id="Mood=Good, Style=1, Component=Mood Indicator">
<path id="Vector" d="M32 15.9998C32 24.8365 24.8365 32 16.0004 32C7.16346 32 0 24.8365 0 15.9998C0 7.16319 7.16346 0 16.0004 0C24.8365 0 32 7.16319 32 15.9998Z" fill="#7EC8D3"/>
<path id="Vector_2" d="M16.0004 24.373C12.7134 24.373 11.0694 21.8033 11.001 21.6938C10.7899 21.3563 10.8921 20.9117 11.2298 20.7007C11.5667 20.4903 12.01 20.5918 12.222 20.9274C12.276 21.0129 13.5315 22.9315 16.0004 22.9315C18.4423 22.9315 19.7713 20.938 19.7848 20.9179C20.0026 20.5845 20.4493 20.4907 20.782 20.7083C21.1155 20.926 21.2092 21.3725 20.9922 21.7059C20.9205 21.8148 19.214 24.373 16.0004 24.373Z" fill="#212121"/>
<path id="Vector_3" d="M18.7771 14.6276C18.7771 16.0363 19.9187 17.1782 21.3279 17.1782C22.7363 17.1782 23.8778 16.0363 23.8778 14.6276C23.8778 13.2191 22.7363 12.0771 21.3279 12.0771C19.9187 12.0771 18.7771 13.2191 18.7771 14.6276Z" fill="#212121"/>
<path id="Vector_4" d="M13.2239 14.6276C13.2239 16.0363 12.0815 17.1782 10.6732 17.1782C9.26479 17.1782 8.12238 16.0363 8.12238 14.6276C8.12238 13.2191 9.26479 12.0771 10.6732 12.0771C12.0815 12.0771 13.2239 13.2191 13.2239 14.6276Z" fill="#212121"/>
</g>
</svg>
