<svg width="32" height="32" viewBox="0 0 32 32" fill="none" xmlns="http://www.w3.org/2000/svg">
<g id="Mood=Great, Style=1, Component=Mood Indicator">
<path id="Vector" d="M32 15.9998C32 24.8365 24.8365 32 15.9996 32C7.16346 32 0 24.8365 0 15.9998C0 7.16319 7.16346 0 15.9996 0C24.8365 0 32 7.16319 32 15.9998Z" fill="#00A5E3"/>
<path id="Vector_2" d="M10.3333 21.3116C10.3333 21.3116 11.2537 25.4194 15.9997 25.4194C20.7053 25.4194 21.6662 21.3116 21.6662 21.3116H10.3333Z" fill="#212121"/>
<path id="Vector_3" d="M18.9052 15.7209C19.0015 15.7937 19.1315 15.8038 19.2362 15.7454C21.7591 14.3558 24.4855 15.0643 25.0765 15.1789C25.0968 15.1825 25.1154 15.1847 25.1348 15.1847C25.2488 15.1847 25.3552 15.1191 25.4058 15.0131C25.4801 14.8575 25.3847 14.7134 25.2496 14.6045C24.8156 14.2542 21.9905 11.8873 18.8664 15.2683C18.7439 15.4016 18.7617 15.6121 18.9052 15.7209Z" fill="#212121"/>
<path id="Vector_4" d="M13.0952 15.7209C12.999 15.7937 12.8689 15.8038 12.7642 15.7454C10.2413 14.3558 7.5149 15.0643 6.92301 15.1789C6.90359 15.1825 6.88501 15.1847 6.86559 15.1847C6.7516 15.1847 6.64522 15.1191 6.59456 15.0131C6.51941 14.8575 6.61567 14.7134 6.75076 14.6045C7.18391 14.2542 10.01 11.8873 13.134 15.2683C13.2565 15.4016 13.2387 15.6121 13.0952 15.7209Z" fill="#212121"/>
</g>
</svg>
