<svg width="45" height="44" viewBox="0 0 45 44" fill="none" xmlns="http://www.w3.org/2000/svg">
<g clip-path="url(#clip0_184_3199)">
<path d="M23.4603 1.25737C23.2001 1.03487 22.8691 0.912598 22.5267 0.912598C22.1844 0.912598 21.8534 1.03487 21.5932 1.25737L0.984131 18.9223V39.6894C0.984131 40.8321 1.43806 41.928 2.24607 42.736C3.05407 43.544 4.14996 43.9979 5.29265 43.9979H16.782C17.1629 43.9979 17.5282 43.8466 17.7976 43.5773C18.0669 43.3079 18.2182 42.9426 18.2182 42.5617V33.9447C18.2182 32.802 18.6722 31.7061 19.4802 30.8981C20.2882 30.0901 21.3841 29.6362 22.5267 29.6362C23.6694 29.6362 24.7653 30.0901 25.5733 30.8981C26.3813 31.7061 26.8353 32.802 26.8353 33.9447V42.5617C26.8353 42.9426 26.9866 43.3079 27.2559 43.5773C27.5252 43.8466 27.8905 43.9979 28.2714 43.9979H39.7608C40.9035 43.9979 41.9994 43.544 42.8074 42.736C43.6154 41.928 44.0694 40.8321 44.0694 39.6894V18.9223L23.4603 1.25737Z" fill="#979797"/>
</g>
<defs>
<clipPath id="clip0_184_3199">
<rect width="43.0852" height="43.0852" fill="white" transform="translate(0.984131 0.912598)"/>
</clipPath>
</defs>
</svg>
