<svg width="44" height="37" viewBox="0 0 44 37" fill="none" xmlns="http://www.w3.org/2000/svg">
<path d="M17.1193 2.94061C13.849 1.37924 9.27807 0.614399 3.15842 0.587245C2.58127 0.579404 2.01545 0.747698 1.53641 1.06969C1.1432 1.33546 0.821331 1.69379 0.599104 2.11314C0.376878 2.5325 0.261104 3.00004 0.261968 3.47464V29.3707C0.261968 31.1213 1.50744 32.4419 3.15842 32.4419C9.59125 32.4419 16.044 33.0429 19.9089 36.696C19.9618 36.7462 20.0283 36.7798 20.1001 36.7925C20.1718 36.8053 20.2458 36.7966 20.3127 36.7677C20.3796 36.7388 20.4366 36.6908 20.4765 36.6298C20.5164 36.5688 20.5375 36.4974 20.5371 36.4245V5.91128C20.5373 5.70541 20.4932 5.50191 20.408 5.31452C20.3227 5.12714 20.1982 4.96024 20.0429 4.82511C19.1576 4.06827 18.1742 3.43438 17.1193 2.94061ZM42.4343 1.06697C41.955 0.745784 41.3891 0.57843 40.8122 0.587245C34.6926 0.614399 30.1216 1.37562 26.8514 2.94061C25.7965 3.43348 24.8129 4.06612 23.9269 4.82149C23.7719 4.95686 23.6477 5.12382 23.5626 5.31117C23.4775 5.49851 23.4335 5.7019 23.4336 5.90766V36.4227C23.4335 36.4927 23.4542 36.5612 23.4929 36.6196C23.5317 36.678 23.5868 36.7236 23.6513 36.7508C23.7159 36.7779 23.7871 36.7854 23.8559 36.7723C23.9247 36.7592 23.9881 36.726 24.0382 36.677C26.3617 34.3689 30.4393 32.4391 40.8159 32.44C41.5841 32.44 42.3208 32.1349 42.864 31.5917C43.4072 31.0485 43.7123 30.3118 43.7123 29.5436V3.47555C43.7134 3.00001 43.5973 2.53153 43.3744 2.11146C43.1515 1.6914 42.8286 1.33268 42.4343 1.06697Z" fill="#979797"/>
</svg>
