<svg width="36" height="32" viewBox="0 0 36 32" fill="none" xmlns="http://www.w3.org/2000/svg">
<path d="M17.8173 0.936035C19.9608 0.936035 21.6794 2.65465 21.6794 4.7981C21.6794 6.94154 19.9608 8.66016 17.8173 8.66016C15.6739 8.66016 13.9553 6.94154 13.9553 4.7981C13.9553 2.65465 15.6932 0.936035 17.8173 0.936035ZM35.1966 24.1084V20.2463C30.8711 20.2463 27.1635 18.3925 24.3828 15.0712L21.7952 11.9815C21.436 11.546 20.9847 11.1955 20.4739 10.9551C19.9631 10.7147 19.4053 10.5904 18.8408 10.5912H16.8518C15.6739 10.5912 14.5925 11.0933 13.8587 11.9815L11.2711 15.0712C8.47113 18.3925 4.76356 20.2463 0.438049 20.2463V24.1084C5.787 24.1084 10.4601 21.8491 13.9553 17.8325V22.1774L6.46286 25.1705C5.16907 25.6918 4.30011 27.0049 4.30011 28.376C4.30011 30.2877 5.84493 31.8325 7.75665 31.8325H12.0242V30.867C12.0242 29.5867 12.5328 28.3587 13.4382 27.4534C14.3435 26.548 15.5715 26.0394 16.8518 26.0394H22.6449C23.1856 26.0394 23.6104 26.4643 23.6104 27.0049C23.6104 27.5456 23.1856 27.9705 22.6449 27.9705H16.8518C15.2491 27.9705 13.9553 29.2642 13.9553 30.867V31.8325H27.878C29.7897 31.8325 31.3345 30.2877 31.3345 28.376C31.3345 27.0049 30.4656 25.6918 29.1718 25.1705L21.6794 22.1774V17.8325C25.1745 21.8491 29.8476 24.1084 35.1966 24.1084Z" fill="#979797"/>
</svg>
