<svg width="32" height="32" viewBox="0 0 32 32" fill="none" xmlns="http://www.w3.org/2000/svg">
<g id="Mood=Not Good, Style=1, Component=Mood Indicator">
<path id="Vector" d="M32 15.9998C32 24.8365 24.8365 32 16 32C7.16345 32 0 24.8365 0 15.9998C0 7.16319 7.16345 0 16 0C24.8365 0 32 7.16319 32 15.9998Z" fill="#FF981F"/>
<path id="Vector_2" d="M20.389 24.373C20.1497 24.373 19.9156 24.2538 19.7787 24.0367C19.724 23.9511 18.469 22.0325 16.0002 22.0325C13.5582 22.0325 12.2286 24.026 12.2155 24.0461C11.9979 24.3795 11.5511 24.4732 11.218 24.2557C10.8847 24.0381 10.7909 23.5915 11.0085 23.2582C11.0795 23.1492 12.7864 20.591 16.0002 20.591C19.2872 20.591 20.931 23.1608 20.9994 23.2702C21.2104 23.6077 21.1078 24.0524 20.7703 24.2633C20.6515 24.3375 20.5194 24.373 20.389 24.373Z" fill="#212121"/>
<path id="Vector_3" d="M18.7761 14.6276C18.7761 16.0363 19.918 17.1782 21.3266 17.1782C22.7353 17.1782 23.8772 16.0363 23.8772 14.6276C23.8772 13.2191 22.7353 12.0771 21.3266 12.0771C19.918 12.0771 18.7761 13.2191 18.7761 14.6276Z" fill="#212121"/>
<path id="Vector_4" d="M13.2234 14.6276C13.2234 16.0363 12.0815 17.1782 10.6729 17.1782C9.26429 17.1782 8.12238 16.0363 8.12238 14.6276C8.12238 13.2191 9.26429 12.0771 10.6729 12.0771C12.0815 12.0771 13.2234 13.2191 13.2234 14.6276Z" fill="#212121"/>
</g>
</svg>
