<svg width="28" height="33" viewBox="0 0 28 33" fill="none" xmlns="http://www.w3.org/2000/svg">
<path d="M8.9675 28.75C9.29155 29.8329 9.95625 30.7824 10.8629 31.4574C11.7695 32.1324 12.8697 32.497 14 32.497C15.1303 32.497 16.2305 32.1324 17.1371 31.4574C18.0437 30.7824 18.7084 29.8329 19.0325 28.75H8.9675ZM0.5 27.25H27.5V22.75L24.5 18.25V10.75C24.5 9.37112 24.2284 8.00574 23.7007 6.73182C23.1731 5.45791 22.3996 4.30039 21.4246 3.32538C20.4496 2.35036 19.2921 1.57694 18.0182 1.04926C16.7443 0.52159 15.3789 0.25 14 0.25C12.6211 0.25 11.2557 0.52159 9.98182 1.04926C8.7079 1.57694 7.55039 2.35036 6.57538 3.32538C5.60036 4.30039 4.82694 5.45791 4.29926 6.73182C3.77159 8.00574 3.5 9.37112 3.5 10.75V18.25L0.5 22.75V27.25Z" fill="#7EC8D3"/>
</svg>
