<svg width="32" height="32" viewBox="0 0 32 32" fill="none" xmlns="http://www.w3.org/2000/svg">
<g id="Mood=Okay, Style=1, Component=Mood Indicator">
<path id="Vector" d="M32 15.9998C32 24.8365 24.8364 32 16.0001 32C7.16351 32 0 24.8365 0 15.9998C0 7.16319 7.16351 0 16.0001 0C24.8364 0 32 7.16319 32 15.9998Z" fill="#FFC02D"/>
<path id="Vector_2" d="M20.388 24.373H11.6117C11.214 24.373 10.8906 24.0502 10.8906 23.6522C10.8906 23.2543 11.214 22.9315 11.6117 22.9315H20.388C20.7857 22.9315 21.1091 23.2543 21.1091 23.6522C21.1091 24.0502 20.7857 24.373 20.388 24.373Z" fill="#212121"/>
<path id="Vector_3" d="M18.7761 15.9998C18.7761 17.4085 19.9185 18.5503 21.3269 18.5503C22.7353 18.5503 23.8777 17.4085 23.8777 15.9998C23.8777 14.5911 22.7353 13.4492 21.3269 13.4492C19.9185 13.4492 18.7761 14.5911 18.7761 15.9998Z" fill="#212121"/>
<path id="Vector_4" d="M13.2237 15.9998C13.2237 17.4085 12.0813 18.5503 10.6729 18.5503C9.26451 18.5503 8.12292 17.4085 8.12292 15.9998C8.12292 14.5911 9.26451 13.4492 10.6729 13.4492C12.0813 13.4492 13.2237 14.5911 13.2237 15.9998Z" fill="#212121"/>
</g>
</svg>
