<svg width="36" height="36" viewBox="0 0 36 36" fill="none" xmlns="http://www.w3.org/2000/svg">
<path fill-rule="evenodd" clip-rule="evenodd" d="M10.2516 8.14623C10.2516 6.09773 11.0654 4.13314 12.5139 2.68463C13.9624 1.23612 15.927 0.422363 17.9755 0.422363C20.024 0.422363 21.9886 1.23612 23.4371 2.68463C24.8856 4.13314 25.6994 6.09773 25.6994 8.14623C25.6994 10.1947 24.8856 12.1593 23.4371 13.6078C21.9886 15.0563 20.024 15.8701 17.9755 15.8701C15.927 15.8701 13.9624 15.0563 12.5139 13.6078C11.0654 12.1593 10.2516 10.1947 10.2516 8.14623ZM10.2516 19.732C7.69101 19.732 5.23527 20.7492 3.42464 22.5599C1.614 24.3705 0.596802 26.8262 0.596802 29.3869C0.596802 30.9232 1.20712 32.3967 2.2935 33.4831C3.37988 34.5694 4.85333 35.1798 6.3897 35.1798H29.5613C31.0977 35.1798 32.5711 34.5694 33.6575 33.4831C34.7439 32.3967 35.3542 30.9232 35.3542 29.3869C35.3542 26.8262 34.337 24.3705 32.5264 22.5599C30.7157 20.7492 28.26 19.732 25.6994 19.732H10.2516Z" fill="#979797"/>
</svg>
