<svg width="37" height="40" viewBox="0 0 37 40" fill="none" xmlns="http://www.w3.org/2000/svg">
<path d="M16.1886 0.132324C19.9794 0.13174 23.6409 1.51056 26.4897 4.01143C29.3385 6.51231 31.18 9.96436 31.6704 13.7233L36.0609 20.629C36.3497 21.0837 36.2912 21.7608 35.6219 22.0496L31.7992 23.6848V29.4022C31.7992 30.4372 31.3881 31.4299 30.6562 32.1618C29.9243 32.8937 28.9316 33.3048 27.8966 33.3048H23.9959L23.9939 39.1588H6.43202V31.9506C6.43202 29.648 5.58125 27.4684 4.00263 25.5015C2.1639 23.2057 1.01121 20.4371 0.677361 17.5147C0.343516 14.5923 0.842104 11.6351 2.11568 8.98375C3.38925 6.33239 5.38599 4.09479 7.87582 2.52877C10.3657 0.962751 13.2473 0.132029 16.1886 0.132324ZM16.1886 9.88894C15.6711 9.88894 15.1748 10.0945 14.8088 10.4605C14.4429 10.8264 14.2373 11.3227 14.2373 11.8403V13.7896L12.286 13.7916C11.7685 13.7916 11.2721 13.9972 10.9062 14.3631C10.5403 14.7291 10.3347 15.2254 10.3347 15.7429C10.3347 16.2604 10.5403 16.7568 10.9062 17.1227C11.2721 17.4887 11.7685 17.6942 12.286 17.6942L14.2373 17.6923V19.6456C14.2373 20.1631 14.4429 20.6594 14.8088 21.0254C15.1748 21.3913 15.6711 21.5969 16.1886 21.5969C16.7062 21.5969 17.2025 21.3913 17.5684 21.0254C17.9344 20.6594 18.14 20.1631 18.14 19.6456V17.6942H20.0913C20.6088 17.6942 21.1051 17.4887 21.4711 17.1227C21.837 16.7568 22.0426 16.2604 22.0426 15.7429C22.0426 15.2254 21.837 14.7291 21.4711 14.3631C21.1051 13.9972 20.6088 13.7916 20.0913 13.7916H18.14V11.8403C18.14 11.3227 17.9344 10.8264 17.5684 10.4605C17.2025 10.0945 16.7062 9.88894 16.1886 9.88894Z" fill="#979797"/>
</svg>
