<svg width="18" height="19" viewBox="0 0 18 19" fill="none" xmlns="http://www.w3.org/2000/svg">
<path d="M16 3.29541C16 2.60541 15.44 2.04541 14.75 2.04541H3.25C2.56 2.04541 2 2.60541 2 3.29541V14.7954C2 15.4854 2.56 16.0454 3.25 16.0454H7C7.26522 16.0454 7.51957 16.1508 7.70711 16.3383C7.89464 16.5258 8 16.7802 8 17.0454C8 17.3106 7.89464 17.565 7.70711 17.7525C7.51957 17.9401 7.26522 18.0454 7 18.0454H3.25C2.38805 18.0454 1.5614 17.703 0.951902 17.0935C0.342409 16.484 0 15.6574 0 14.7954V3.29541C0 2.43346 0.342409 1.60681 0.951902 0.997313C1.5614 0.38782 2.38805 0.0454102 3.25 0.0454102H14.75C15.612 0.0454102 16.4386 0.38782 17.0481 0.997313C17.6576 1.60681 18 2.43346 18 3.29541V7.04541C18 7.31063 17.8946 7.56498 17.7071 7.75252C17.5196 7.94005 17.2652 8.04541 17 8.04541C16.7348 8.04541 16.4804 7.94005 16.2929 7.75252C16.1054 7.56498 16 7.31063 16 7.04541V3.29541ZM16 11.0454C16 10.7802 16.1054 10.5258 16.2929 10.3383C16.4804 10.1508 16.7348 10.0454 17 10.0454C17.2652 10.0454 17.5196 10.1508 17.7071 10.3383C17.8946 10.5258 18 10.7802 18 11.0454V17.0454C18 17.3106 17.8946 17.565 17.7071 17.7525C17.5196 17.9401 17.2652 18.0454 17 18.0454H11C10.7348 18.0454 10.4804 17.9401 10.2929 17.7525C10.1054 17.565 10 17.3106 10 17.0454C10 16.7802 10.1054 16.5258 10.2929 16.3383C10.4804 16.1508 10.7348 16.0454 11 16.0454H14.586L10.293 11.7524C10.1108 11.5638 10.01 11.3112 10.0123 11.049C10.0146 10.7868 10.1198 10.536 10.3052 10.3506C10.4906 10.1652 10.7414 10.06 11.0036 10.0577C11.2658 10.0555 11.5184 10.1563 11.707 10.3384L16 14.6314V11.0454Z" fill="#585656"/>
</svg>
