<svg width="25" height="24" viewBox="0 0 25 24" fill="none" xmlns="http://www.w3.org/2000/svg">
<path d="M19.5 6.25C19.5 5.56 18.94 5 18.25 5H6.75C6.06 5 5.5 5.56 5.5 6.25V17.75C5.5 18.44 6.06 19 6.75 19H10.5C10.7652 19 11.0196 19.1054 11.2071 19.2929C11.3946 19.4804 11.5 19.7348 11.5 20C11.5 20.2652 11.3946 20.5196 11.2071 20.7071C11.0196 20.8946 10.7652 21 10.5 21H6.75C5.88805 21 5.0614 20.6576 4.4519 20.0481C3.84241 19.4386 3.5 18.612 3.5 17.75V6.25C3.5 5.38805 3.84241 4.5614 4.4519 3.9519C5.0614 3.34241 5.88805 3 6.75 3H18.25C19.112 3 19.9386 3.34241 20.5481 3.9519C21.1576 4.5614 21.5 5.38805 21.5 6.25V10C21.5 10.2652 21.3946 10.5196 21.2071 10.7071C21.0196 10.8946 20.7652 11 20.5 11C20.2348 11 19.9804 10.8946 19.7929 10.7071C19.6054 10.5196 19.5 10.2652 19.5 10V6.25ZM19.5 14C19.5 13.7348 19.6054 13.4804 19.7929 13.2929C19.9804 13.1054 20.2348 13 20.5 13C20.7652 13 21.0196 13.1054 21.2071 13.2929C21.3946 13.4804 21.5 13.7348 21.5 14V20C21.5 20.2652 21.3946 20.5196 21.2071 20.7071C21.0196 20.8946 20.7652 21 20.5 21H14.5C14.2348 21 13.9804 20.8946 13.7929 20.7071C13.6054 20.5196 13.5 20.2652 13.5 20C13.5 19.7348 13.6054 19.4804 13.7929 19.2929C13.9804 19.1054 14.2348 19 14.5 19H18.086L13.793 14.707C13.6108 14.5184 13.51 14.2658 13.5123 14.0036C13.5146 13.7414 13.6198 13.4906 13.8052 13.3052C13.9906 13.1198 14.2414 13.0146 14.5036 13.0123C14.7658 13.01 15.0184 13.1108 15.207 13.293L19.5 17.586V14Z" fill="#F9FAFB"/>
</svg>
